<svg xmlns="http://www.w3.org/2000/svg" width="1136.5" height="926.01" viewBox="0 0 1136.5 926.01">
  <defs>
    <style>
      .cls-1 {
        fill: #b2dcdc;
      }

      .cls-2 {
        fill: #fff;
      }

      .cls-3 {
        fill: #020202;
      }
    </style>
  </defs>
  <g id="Layer_3" data-name="Layer 3">
    <g>
      <circle cx="556.89" cy="463.01" r="463.01"/>
      <circle class="cls-1" cx="556.26" cy="462.05" r="247.23"/>
      <g>
        <polygon class="cls-2" points="5.42 201.82 5.42 566.87 142.22 566.87 142.05 423.02 180.67 566.87 238.47 566.87 272.17 425.19 274.51 566.87 408.74 566.87 408.74 252.95 249.4 237.6 214.7 350.37 182.17 231.09 5.42 201.82"/>
        <path class="cls-3" d="M414.16,572.29h-145l-1.72-103.88L242.75,572.29H176.51l-29-108,.12,108H0V195.42l186.48,30.89L215,330.91l30.5-99.13L414.16,248ZM279.84,561.44H403.32V257.88l-150-14.46-38.9,126.4L177.85,235.87l-167-27.66V561.44h126l-.21-179.7,48.25,179.7h49.35L276.87,382Z"/>
      </g>
      <g>
        <rect class="cls-2" x="431.56" y="335.19" width="137.38" height="231.68"/>
        <path class="cls-3" d="M574.37,572.29H426.14V329.77H574.37ZM437,561.44H563.52V340.61H437Z"/>
      </g>
      <g>
        <polygon class="cls-2" points="399.03 209.41 458.72 209.41 500.25 155.34 540.48 209.41 597.9 209.41 556.37 257.07 556.37 316.36 503.13 285.31 444.37 316.36 446.74 257.12 399.03 209.41"/>
        <path class="cls-3" d="M561.79,325.8,503,291.51l-64.43,34.05,2.66-66.29L385.94,204h70.11l44.27-57.64L543.21,204h66.61l-48,55.11Zm-149.67-111L452.25,255l-2.09,52.21,53.1-28.06L551,306.92V255l35-40.21H537.76l-37.57-50.5-38.8,50.5Z"/>
      </g>
      <g>
        <path class="cls-2" d="M592,330.85v236H724l.37-140.6s15.18-21.68,34.7,0v140.6H888V368s-50.92-97.9-161.52-22V330.85Z"/>
        <path class="cls-3" d="M893.44,572.29H753.61V428.42c-4.42-4.44-8.73-6.59-12.87-6.35-5.13.29-9.2,4.13-11,6.13l-.38,144.09H586.62V325.43h145.3V336c34.51-21.58,66.84-28.8,96.21-21.46,43.38,10.84,63.85,49.37,64.7,51l.61,1.18Zm-129-10.85H882.6v-192c-3.54-6.07-22.44-35.8-57.22-44.43-28.59-7.1-60.83,1.47-95.81,25.48l-8.49,5.83V336.27H597.46V561.44H718.55l.36-136.88,1-1.4c.32-.45,8-11.16,20.13-11.91,8.06-.48,15.79,3.34,23,11.4l1.39,1.54Z"/>
      </g>
      <g>
        <path class="cls-2" d="M1062.64,189.89V292.81l58.55-1v99.73h-58.55V451s17.35,33.8,67.23-16.08c0,0-8.68,104.09-21.69,123.61S958.54,595.43,926,523.86V396.12l-23.85-.21V316.36l25.62.83.4-62.24Z"/>
        <path class="cls-3" d="M1036.37,581.11c-5.95,0-11.94-.23-17.89-.71-28.19-2.28-78.34-12.37-97.4-54.29l-.49-1.07V401.49l-23.85-.2V310.76l25.65.83.39-60,145.28-70.3V287.29l58.55-1V397h-58.55v52.52a17.46,17.46,0,0,0,11.73,7.1c8.27,1.21,23-2.24,46.24-25.48l10.47-10.46-1.23,14.75c-.9,10.79-9.18,106.07-22.58,126.17C1105.06,573,1071.7,581.11,1036.37,581.11ZM931.44,522.66c17.14,36,62.34,44.86,87.92,46.93,43.41,3.51,79.78-7.24,84.31-14,8.67-13,16.11-72.64,19.51-107-17,14.48-32.23,20.78-45.27,18.74a28.19,28.19,0,0,1-20.09-13.77l-.6-1.16V386.12h58.55V297.33l-58.55,1V198.54L933.58,258.36l-.41,64.43L907.58,322v68.58l23.86.2Z"/>
      </g>
      <g>
        <path class="cls-2" d="M342,677.4l23.78,17.68c14.68,10.91,22.13,24.49,10.42,40.25-11.27,15.17-27.7,13.65-42.38,2.74l-11.26-8.38L302,757.28,289.52,748Zm-8,55.58,14.61-.74L342.05,787,328,776.56Zm6-5.89c9.67,7.19,17.92,7.09,23.89-.94s2.85-14.84-6.82-22l-10-7.41-17.07,23Z"/>
        <path class="cls-2" d="M403.43,721.24l46.81,24.69-6.12,11.61-33-17.42-10.51,19.94,28,14.75-6.12,11.61-28-14.76-12.15,23,34.2,18-6.12,11.61L362.4,799Z"/>
        <path class="cls-2" d="M446.05,792.63c8.27-27.57,30.44-38.77,51.77-32.37a35,35,0,0,1,21.06,18L508,785.44c-3-5.62-7.18-10.13-13.78-12.1-13.7-4.12-27,4.52-32.69,23.43-5.77,19.21-.19,33.58,13.92,37.81,7.47,2.24,14.28.53,20.58-3.26l5.17,11.78A35.08,35.08,0,0,1,471,847.39C449.82,841,437.68,820.5,446.05,792.63Z"/>
        <path class="cls-2" d="M520.57,813.82c.66-28.44,16.91-44.85,39.81-44.32s38.38,17.75,37.72,46.12-16.92,45.55-39.83,45S519.91,842.27,520.57,813.82Zm61.51,1.43c.46-19.74-8.19-31.88-22-32.2s-23,11.41-23.48,31.14,8.18,32.58,22,32.9S581.62,835,582.08,815.25Z"/>
        <path class="cls-2" d="M607.65,769.12,636,760.36c17.48-5.41,32.85-3.41,38.65,15.35,5.58,18.06-5.34,30.42-22.81,35.83l-13.41,4.14,10.16,32.84-14.91,4.61Zm38.92,31c11.51-3.56,16.3-10.28,13.34-19.83s-10.29-11.07-21.8-7.5l-11.87,3.67,8.46,27.33Zm1.19,8.33,8-12.23,40.37,37.59L679.43,839Z"/>
        <path class="cls-2" d="M675.94,745.69l19.8-12.57c22.75-14.43,44-10.7,59.57,13.87s10.3,46-11.77,60l-20.49,13Zm59.28,51.56c14.94-9.48,18.14-23.42,6.55-41.67s-25.18-20.72-40.12-11.24L695.88,748l33.57,52.91Z"/>
        <path class="cls-2" d="M789.05,761.47l-.66-14c8.69.09,17.61-2.73,23.59-8.31,7.23-6.76,8.13-13.75,3.45-18.76-4.94-5.29-10.66-3.1-18.81-.12l-12.35,4.39c-8.79,3.28-20.13,4.49-28.9-4.9-9.57-10.24-7.89-26.56,4.64-38.28a38.57,38.57,0,0,1,27.47-10.31l.9,12.7c-7.34.35-13.61,2.38-19.11,7.52-6.09,5.69-7.4,12.25-3,16.94,4.71,5,11.35,2.35,18.72-.45L797,703.41c10.62-4,20.48-4.12,29.18,5.2,9.73,10.41,9.2,27.17-5.23,40.65A45.27,45.27,0,0,1,789.05,761.47Z"/>
      </g>
    </g>
  </g>
</svg>
