<?xml version="1.0" standalone="no"?>
<!DOCTYPE svg PUBLIC "-//W3C//DTD SVG 20010904//EN"
 "http://www.w3.org/TR/2001/REC-SVG-20010904/DTD/svg10.dtd">
<svg version="1.0" xmlns="http://www.w3.org/2000/svg"
 width="1137.000000pt" height="1137.000000pt" viewBox="0 0 1137.000000 1137.000000"
 preserveAspectRatio="xMidYMid meet">
<metadata>
Created by potrace 1.11, written by Peter Selinger 2001-2013
</metadata>
<g transform="translate(0.000000,1137.000000) scale(0.100000,-0.100000)"
fill="#000000" stroke="none">
<path d="M5315 10309 c-742 -47 -1426 -250 -2055 -612 -618 -355 -1166 -871
-1554 -1464 -67 -102 -92 -133 -108 -133 -12 0 -101 14 -197 30 -248 42 -1384
230 -1393 230 -5 0 -8 -846 -8 -1880 l0 -1880 537 -2 538 -3 31 -115 c287
-1068 959 -2005 1884 -2628 180 -121 317 -200 535 -307 619 -304 1204 -449
1930 -480 340 -15 820 37 1202 130 973 237 1831 770 2469 1535 404 484 691
1019 880 1641 25 85 48 156 49 157 2 2 75 -1 162 -7 412 -28 833 60 913 191
82 134 168 626 228 1294 l8 92 -106 -100 c-253 -238 -441 -307 -552 -200 l-28
26 0 263 0 263 295 0 295 0 0 551 0 552 -292 -4 -293 -4 -5 527 -5 526 -245
-119 c-135 -65 -377 -182 -539 -261 -241 -117 -296 -140 -303 -128 -219 373
-448 671 -743 966 -600 602 -1331 1016 -2160 1223 -445 111 -934 157 -1370
130z m-111 -1891 l176 -238 240 0 c132 0 240 -4 240 -8 0 -5 -76 -96 -170
-203 l-169 -194 -1 -262 c0 -145 -3 -263 -7 -263 -6 0 -204 113 -369 211 -44
27 -88 51 -97 55 -10 3 -113 -45 -269 -128 -139 -73 -259 -135 -267 -136 -14
-4 -13 44 5 408 l5 105 -196 198 c-107 108 -195 202 -195 207 0 6 89 10 243
10 l243 0 193 251 c159 206 196 249 206 237 7 -7 92 -120 189 -250z m5376
-582 l0 -495 293 2 292 2 3 -442 2 -443 -292 -2 -293 -3 -3 -333 -2 -332 42
-46 c23 -25 60 -55 82 -66 51 -26 148 -34 217 -18 64 15 177 73 254 131 30 23
58 39 61 36 16 -16 -83 -702 -126 -874 -42 -164 -62 -201 -130 -235 -124 -61
-361 -101 -605 -102 -484 -1 -845 142 -1017 403 l-48 74 0 658 0 659 -115 0
-115 0 0 345 0 345 125 0 125 0 0 315 0 315 23 14 c12 8 168 85 347 172 179
86 444 215 590 285 146 71 271 129 278 129 9 0 12 -105 12 -494z m-10089 344
c200 -33 456 -75 569 -95 113 -19 321 -53 463 -76 l257 -42 20 -66 c10 -36 89
-323 175 -638 85 -315 159 -583 164 -595 7 -19 14 -6 41 82 17 58 44 146 60
195 16 50 61 196 100 325 39 129 84 276 100 325 16 50 43 137 60 194 l31 104
42 -6 c23 -3 150 -15 282 -28 132 -12 452 -43 710 -68 l470 -46 3 -1523 2
-1522 -622 2 -623 3 -8 445 c-4 245 -11 639 -15 875 l-7 430 -23 -95 c-34
-139 -183 -766 -277 -1165 -32 -132 -71 -296 -89 -365 l-31 -125 -250 0 -250
0 -26 100 c-15 55 -52 195 -84 310 -31 116 -72 266 -90 335 -107 405 -267 995
-271 999 -2 2 -4 -390 -4 -872 l0 -877 -630 0 -630 0 0 1770 c0 974 4 1770 8
1770 5 0 173 -27 373 -60z m5613 -64 c234 -50 503 -157 731 -291 157 -92 330
-228 480 -379 129 -129 295 -329 283 -341 -3 -3 -45 -25 -95 -49 -50 -24 -109
-56 -131 -70 -23 -14 -44 -26 -47 -26 -3 0 -5 23 -5 50 l0 50 -725 0 -725 0 0
-1230 0 -1230 708 0 709 0 6 338 c4 185 7 511 7 724 l0 387 37 26 c60 40 138
31 185 -22 17 -18 18 -71 20 -734 l3 -714 118 -3 c64 -1 117 -6 117 -9 0 -12
-101 -185 -153 -263 -379 -569 -986 -962 -1650 -1070 -281 -46 -546 -45 -826
0 -660 108 -1263 497 -1641 1060 -58 86 -160 260 -160 273 0 4 178 7 395 7
l395 0 0 1564 0 1564 79 51 c44 28 84 51 88 51 5 0 32 -24 60 -52 l52 -53 -14
-325 c-7 -179 -12 -326 -12 -326 1 -1 146 74 321 167 176 92 323 166 328 163
5 -3 135 -79 291 -170 l282 -164 5 334 5 335 174 200 c96 111 178 201 182 201
5 0 60 -11 123 -24z m2056 -1026 c234 -27 449 -158 610 -372 l60 -79 0 -970 0
-969 -592 2 -593 3 -5 694 -5 695 -52 42 c-113 92 -252 84 -353 -21 l-35 -36
-4 -690 -3 -689 -607 2 -606 3 -3 1128 -2 1127 625 0 624 0 3 -95 3 -95 80 53
c229 154 445 245 634 267 96 11 126 11 221 0z m-276 -3511 c3 -17 6 -47 6 -65
0 -29 -4 -34 -27 -39 -67 -14 -102 -26 -134 -48 -98 -66 -107 -190 -15 -213
27 -6 69 5 219 60 165 61 261 48 341 -45 46 -55 59 -96 54 -177 -5 -84 -33
-144 -98 -210 -81 -83 -210 -142 -307 -142 l-33 0 -2 55 c-1 30 -2 63 -2 72
-1 14 10 19 49 25 73 10 133 36 177 76 73 66 87 128 42 181 -36 43 -78 41
-236 -14 -183 -64 -274 -60 -351 13 -72 68 -93 187 -50 284 54 120 196 215
324 217 33 1 37 -2 43 -30z m-4302 -148 c75 -56 151 -118 169 -138 97 -111 95
-240 -7 -352 -57 -64 -105 -85 -194 -86 l-75 0 -23 -200 c-14 -110 -26 -202
-27 -203 -6 -6 -136 90 -142 104 -2 6 7 92 21 189 14 98 26 182 26 189 0 10
-88 76 -102 76 -3 0 -50 -58 -103 -130 -53 -71 -100 -130 -104 -130 -14 0
-121 81 -121 91 0 11 -2 8 303 417 156 210 221 291 230 284 7 -5 74 -55 149
-111z m671 -432 c117 -62 222 -118 234 -126 l23 -13 -32 -58 c-17 -31 -32 -58
-33 -59 -1 -2 -73 35 -161 82 -87 46 -162 85 -166 85 -13 0 -100 -182 -91
-191 5 -5 65 -38 133 -75 69 -36 126 -67 128 -69 7 -6 -53 -115 -64 -115 -7 0
-68 29 -136 65 -69 36 -129 65 -135 65 -5 0 -35 -48 -66 -107 l-56 -108 157
-83 c86 -45 163 -86 170 -91 11 -7 8 -19 -13 -60 -14 -29 -31 -54 -38 -57 -15
-5 -483 240 -480 252 2 15 405 774 410 774 2 0 99 -50 216 -111z m3058 61
c114 -36 212 -130 284 -272 88 -175 67 -339 -60 -463 -29 -28 -107 -86 -175
-129 -101 -64 -125 -76 -135 -64 -13 14 -465 725 -465 732 0 6 217 140 268
165 53 27 136 49 183 50 20 1 65 -8 100 -19z m-695 -331 c16 -5 47 -26 67 -47
105 -108 111 -289 13 -381 -14 -14 -26 -28 -26 -31 0 -4 64 -68 143 -141 78
-73 143 -138 145 -144 1 -5 -34 -21 -78 -34 l-81 -24 -42 39 c-23 21 -87 83
-142 136 l-101 98 -61 -21 c-60 -20 -61 -21 -52 -47 20 -60 89 -287 89 -293 0
-7 -128 -49 -148 -49 -5 0 -21 42 -37 93 -15 50 -72 235 -126 411 -55 175 -99
325 -99 332 0 8 6 14 13 14 7 0 78 21 157 46 200 64 272 73 366 43z m-1600
-23 c31 -14 70 -38 87 -52 37 -31 86 -94 87 -110 0 -12 -89 -74 -106 -74 -5 0
-21 18 -37 39 -59 85 -196 108 -286 48 -97 -64 -156 -194 -156 -342 0 -80 3
-95 28 -137 35 -60 100 -100 171 -106 45 -3 83 5 147 32 12 5 21 -5 37 -45 12
-28 22 -58 22 -65 0 -8 -19 -24 -42 -36 -37 -20 -58 -23 -148 -23 -92 0 -112
3 -160 26 -155 73 -244 233 -226 407 24 231 161 416 343 462 64 16 176 5 239
-24z m743 -111 c164 -74 254 -274 223 -494 -29 -202 -117 -324 -271 -371 -180
-56 -369 19 -451 180 -67 131 -71 353 -10 495 43 98 139 184 238 212 75 21
197 11 271 -22z"/>
<path d="M4270 5810 l0 -1210 735 0 735 0 0 1210 0 1210 -735 0 -735 0 0
-1210z m1370 0 l0 -1110 -635 0 -635 0 0 1110 0 1110 635 0 635 0 0 -1110z"/>
<path d="M3390 3237 c-41 -56 -76 -105 -78 -108 -5 -10 106 -89 155 -111 60
-26 106 -19 149 23 81 78 63 152 -58 243 -41 31 -79 56 -84 56 -5 0 -43 -47
-84 -103z"/>
<path d="M7119 2917 c-44 -13 -133 -59 -143 -75 -3 -5 65 -119 150 -253 86
-134 159 -251 164 -258 16 -29 136 65 173 134 35 66 30 143 -15 237 -80 169
-203 249 -329 215z"/>
<path d="M6358 2581 c-32 -10 -64 -21 -72 -24 -11 -5 -7 -29 25 -132 21 -70
40 -129 43 -132 7 -8 136 37 181 62 38 22 54 43 69 89 10 29 -13 98 -42 129
-23 24 -33 27 -86 26 -34 0 -87 -8 -118 -18z"/>
<path d="M5537 2476 c-66 -24 -107 -68 -138 -146 -30 -75 -32 -239 -5 -319 47
-137 187 -195 305 -125 89 52 139 223 112 379 -18 100 -58 167 -121 200 -41
21 -111 26 -153 11z"/>
</g>
</svg>
